<?xml version="1.0" encoding="UTF-8"?>
<svg version="1.1" xmlns="http://www.w3.org/2000/svg" width="1408" height="768">
<path d="M0 0 C464.64 0 929.28 0 1408 0 C1408 253.44 1408 506.88 1408 768 C943.36 768 478.72 768 0 768 C0 514.56 0 261.12 0 0 Z " fill="#FCFCF9" transform="translate(0,0)"/>
<path d="M0 0 C25.08 0 50.16 0 76 0 C76 10.89 76 21.78 76 33 C80.62 33 85.24 33 90 33 C90 22.11 90 11.22 90 0 C114.42 0 138.84 0 164 0 C164 30.36 164 60.72 164 92 C139.58 92 115.16 92 90 92 C90 80.78 90 69.56 90 58 C85.38 58 80.76 58 76 58 C76 68.89 76 79.78 76 91 C69.73 91 63.46 91 57 91 C57 95.62 57 100.24 57 105 C67.89 105 78.78 105 90 105 C90 178.59 90 252.18 90 328 C60.3 328 30.6 328 0 328 C-0.02254386 299.07206486 -0.04097732 270.14413679 -0.05181217 241.21619511 C-0.0528387 238.54622967 -0.05387339 235.87626425 -0.05493164 233.20629883 C-0.05519395 232.54264466 -0.05545626 231.87899049 -0.05572652 231.19522559 C-0.06008323 220.43559831 -0.06797078 209.67597634 -0.0771528 198.91635222 C-0.08648932 187.88403659 -0.09198071 176.85172391 -0.09408849 165.81940454 C-0.09539602 159.61933936 -0.09848448 153.41928625 -0.10573006 147.21922493 C-0.11248644 141.39088814 -0.11461774 135.56256847 -0.11310768 129.73422813 C-0.11338418 127.58833346 -0.11539156 125.44243824 -0.11920547 123.29654694 C-0.12413676 120.38042082 -0.12300039 117.46436048 -0.12025452 114.54823303 C-0.12462378 113.25691651 -0.12462378 113.25691651 -0.12908131 111.93951279 C-0.11412121 106.11412121 -0.11412121 106.11412121 1 105 C3.44830426 104.91156207 5.86820599 104.88471248 8.31640625 104.90234375 C9.04746078 104.9037587 9.77851532 104.90517365 10.53172302 104.90663147 C12.87535632 104.91224592 15.21889539 104.92480078 17.5625 104.9375 C19.14778508 104.94251314 20.73307166 104.94707637 22.31835938 104.95117188 C26.2122761 104.96222003 30.10612205 104.97949428 34 105 C34 100.71 34 96.42 34 92 C22.78 92 11.56 92 0 92 C0 61.64 0 31.28 0 0 Z " fill="#2F046A" transform="translate(551,220)"/>
<path d="M0 0 C29.7 0 59.4 0 90 0 C90 29.04 90 58.08 90 88 C79.11 88 68.22 88 57 88 C57 92.29 57 96.58 57 101 C67.89 101 78.78 101 90 101 C90 130.37 90 159.74 90 190 C60.3 190 30.6 190 0 190 C0 160.63 0 131.26 0 101 C10.89 101 21.78 101 33 101 C33 96.71 33 92.42 33 88 C22.11 88 11.22 88 0 88 C0 58.96 0 29.92 0 0 Z " fill="#2F056B" transform="translate(767,358)"/>
<path d="M0 0 C41.41848183 0 68.90519962 3.62490526 98.5 32.43359375 C110.84505049 45.48591276 119.3284129 61.75266727 124 79 C124.28875 80.03511719 124.5775 81.07023437 124.875 82.13671875 C128.68124718 96.42844495 128 110.01004639 128 125 C98.3 125 68.6 125 38 125 C37.505 117.575 37.505 117.575 37 110 C34.2342155 102.54076302 31.08975811 97.79487957 24 94 C16.20203106 91.10832435 16.20203106 91.10832435 0 91 C0 60.97 0 30.94 0 0 Z " fill="#30056B" transform="translate(729,220)"/>
<path d="M0 0 C10.89 0 21.78 0 33 0 C33 73.59 33 147.18 33 223 C3.3 223 -26.4 223 -57 223 C-57 149.74 -57 76.48 -57 1 C-56.67 1 -56.34 1 -56 1 C-56 73.93 -56 146.86 -56 222 C-50.14149051 220.71801701 -50.14149051 220.71801701 -44.3125 219.3125 C-41.38940058 218.91748657 -38.88877663 219.48643971 -36 220 C-35.34 219.67 -34.68 219.34 -34 219 C-31.66045145 219.28647533 -29.32787927 219.63049535 -27 220 C-24.00250182 220.35684502 -21.00164751 220.68009652 -18 221 C-18 220.34 -18 219.68 -18 219 C-16.00045254 218.95745644 -13.99958364 218.95919217 -12 219 C-11.67 219.33 -11.34 219.66 -11 220 C2.86 220.33 16.72 220.66 31 221 C31 148.73 31 76.46 31 2 C20.77 2 10.54 2 0 2 C0 1.34 0 0.68 0 0 Z " fill="#462E6A" transform="translate(608,325)"/>
<path d="M0 0 C24.75 0 49.5 0 75 0 C75 10.89 75 21.78 75 33 C79.62 32.67 84.24 32.34 89 32 C89.33 21.77 89.66 11.54 90 1 C113.43 1 136.86 1 161 1 C161 1.99 161 2.98 161 4 C137.9 4 114.8 4 91 4 C91 13.57 91 23.14 91 33 C90.34 33.99 89.68 34.98 89 36 C86.22808898 36.24849576 83.70112612 36.32683409 80.9375 36.25 C79.81891602 36.24226563 79.81891602 36.24226563 78.67773438 36.234375 C73.15410426 36.15410426 73.15410426 36.15410426 72 35 C72 24.77 72 14.54 72 4 C48.57 4 25.14 4 1 4 C1 32.38 1 60.76 1 90 C11.89 90 22.78 90 34 90 C34 90.33 34 90.66 34 91 C22.78 91 11.56 91 0 91 C0 60.97 0 30.94 0 0 Z " fill="#220058" transform="translate(552,220)"/>
<path d="M0 0 C29.7 0 59.4 0 90 0 C90 29.04 90 58.08 90 88 C79.11 88 68.22 88 57 88 C57 87.67 57 87.34 57 87 C67.56 87 78.12 87 89 87 C89 58.62 89 30.24 89 1 C64.58 1.33 40.16 1.66 15 2 C15 2.33 15 2.66 15 3 C9.06 3.495 9.06 3.495 3 4 C2.67 29.74 2.34 55.48 2 82 C12.23 82 22.46 82 33 82 C33 82.66 33 83.32 33 84 C32.01 84 31.02 84 30 84 C30 84.66 30 85.32 30 86 C31.32 86 32.64 86 34 86 C34 91.28 34 96.56 34 102 C23.11 102 12.22 102 1 102 C1 131.04 1 160.08 1 190 C0.67 190 0.34 190 0 190 C0 160.63 0 131.26 0 101 C10.89 101 21.78 101 33 101 C33 96.71 33 92.42 33 88 C22.11 88 11.22 88 0 88 C0 58.96 0 29.92 0 0 Z " fill="#59417D" transform="translate(767,358)"/>
<path d="M0 0 C10.56 0 21.12 0 32 0 C31.67 1.32 31.34 2.64 31 4 C21.1 4 11.2 4 1 4 C1 31.06 1 58.12 1 86 C9.78117466 86.72152791 9.78117466 86.72152791 17 84 C18.66611905 83.957279 20.33382885 83.95936168 22 84 C22.66 84 23.32 84 24 84 C28 84 32 84 36 84 C36 84.66 36 85.32 36 86 C52.83 86 69.66 86 87 86 C87 58.94 87 31.88 87 4 C77.1 4 67.2 4 57 4 C56.34 2.68 55.68 1.36 55 0 C65.89 0 76.78 0 88 0 C88 29.04 88 58.08 88 88 C58.96 88 29.92 88 0 88 C0 58.96 0 29.92 0 0 Z " fill="#230553" transform="translate(768,460)"/>
<path d="M0 0 C24.42 0 48.84 0 74 0 C74 30.36 74 60.72 74 92 C49.58 92 25.16 92 0 92 C0 80.78 0 69.56 0 58 C0.33 58 0.66 58 1 58 C1 68.56 1 79.12 1 90 C24.43 90 47.86 90 72 90 C72 60.63 72 31.26 72 1 C48.57 1 25.14 1 1 1 C1 11.23 1 21.46 1 32 C0.67 32 0.34 32 0 32 C0 21.44 0 10.88 0 0 Z " fill="#442D68" transform="translate(641,220)"/>
<path d="M0 0 C33 0 33 0 43 2 C43 2.66 43 3.32 43 4 C29.14 4 15.28 4 1 4 C1 32.38 1 60.76 1 90 C7.27 90 13.54 90 20 90 C21.485 90.99 21.485 90.99 23 92 C11.615 91.505 11.615 91.505 0 91 C0 60.97 0 30.94 0 0 Z " fill="#21054A" transform="translate(729,220)"/>
<path d="M0 0 C24.75 0 49.5 0 75 0 C74.67 10.23 74.34 20.46 74 31 C73.67 31 73.34 31 73 31 C72.97494385 30.15703369 72.9498877 29.31406738 72.92407227 28.44555664 C72.82911845 25.32758326 72.72987552 22.20978497 72.62768555 19.09204102 C72.58428777 17.74085853 72.5426163 16.38961947 72.50268555 15.03833008 C72.44510048 13.09963299 72.38085702 11.16113724 72.31640625 9.22265625 C72.27974854 8.05484619 72.24309082 6.88703613 72.20532227 5.68383789 C72.29923812 3.08220205 72.29923812 3.08220205 71 2 C68.92454048 1.90056148 66.84566208 1.87200405 64.76782227 1.87060547 C64.1173996 1.86885315 63.46697693 1.86710083 62.79684448 1.86529541 C60.63667163 1.86087733 58.47658 1.86381505 56.31640625 1.8671875 C54.82047001 1.86651437 53.32453388 1.86554426 51.82859802 1.86428833 C48.68869997 1.86281135 45.54883031 1.8649656 42.40893555 1.86962891 C38.37913275 1.87532129 34.34939663 1.87205031 30.31959629 1.86605644 C27.22872921 1.86244664 24.13787798 1.86359144 21.04701042 1.86618423 C19.5610141 1.8668526 18.07501634 1.86602824 16.58902168 1.86370468 C14.51316631 1.86117184 12.43741953 1.86502791 10.36157227 1.87060547 C8.5873867 1.87179886 8.5873867 1.87179886 6.77735901 1.87301636 C4.04216767 1.80979306 4.04216767 1.80979306 2 3 C1.67 31.71 1.34 60.42 1 90 C11.89 90 22.78 90 34 90 C34 90.33 34 90.66 34 91 C22.78 91 11.56 91 0 91 C0 60.97 0 30.94 0 0 Z " fill="#20064B" transform="translate(552,220)"/>
<path d="M0 0 C0 0.66 0 1.32 0 2 C-13.86 2 -27.72 2 -42 2 C-41.67 1.34 -41.34 0.68 -41 0 C-28.35962025 -3.46487567 -12.59585906 -3.54456335 0 0 Z " fill="#250657" transform="translate(772,222)"/>
<path d="M0 0 C0 1.65 0 3.3 0 5 C-10.23 5 -20.46 5 -31 5 C-31.33 3.68 -31.66 2.36 -32 1 C-27.60344084 0.85738019 -23.206875 0.71496892 -18.81030273 0.57275391 C-17.31355607 0.52430919 -15.81681127 0.47580672 -14.32006836 0.42724609 C-12.17301917 0.3575967 -10.02596343 0.28815263 -7.87890625 0.21875 C-6.5854126 0.17685547 -5.29191895 0.13496094 -3.95922852 0.09179688 C-1 0 -1 0 0 0 Z " fill="#27035F" transform="translate(855,439)"/>
<path d="M0 0 C15.84 0.495 15.84 0.495 32 1 C32 1.99 32 2.98 32 4 C22.1 4 12.2 4 2 4 C1.34 2.68 0.68 1.36 0 0 Z " fill="#220058" transform="translate(823,460)"/>
<path d="M0 0 C0.33 0 0.66 0 1 0 C1 10.56 1 21.12 1 32 C5.29 32 9.58 32 14 32 C14 32.66 14 33.32 14 34 C8.72 34 3.44 34 -2 34 C-2.04597986 29.8005058 -2.08578332 25.60188935 -2.10986328 21.40234375 C-2.11990427 19.97457922 -2.13353981 18.54683517 -2.15087891 17.11914062 C-2.17521152 15.06375059 -2.18650202 13.00863308 -2.1953125 10.953125 C-2.20578613 9.71723633 -2.21625977 8.48134766 -2.22705078 7.20800781 C-2.01298081 4.18340629 -1.59653159 2.53014349 0 0 Z " fill="#2A0E56" transform="translate(626,221)"/>
<path d="M0 0 C2.97 0.495 2.97 0.495 6 1 C6 2.32 6 3.64 6 5 C2.7 5 -0.6 5 -4 5 C-4 4.34 -4 3.68 -4 3 C-2.68 2.34 -1.36 1.68 0 1 C0 0.67 0 0.34 0 0 Z " fill="#290859" transform="translate(787,227)"/>
<path d="M0 0 C4.82675589 2.41337795 7.69984002 5.86062408 11 10 C7.50110353 10 6.9446397 9.45879668 4.375 7.25 C3.76398437 6.73953125 3.15296875 6.2290625 2.5234375 5.703125 C0.82461253 3.80392581 0.4001213 2.48724051 0 0 Z " fill="#37215D" transform="translate(818,245)"/>
<path d="M0 0 C1.33333333 2.66666667 2.66666667 5.33333333 4 8 C1.36 6.02 -1.28 4.04 -4 2 C-2.68 1.34 -1.36 0.68 0 0 Z " fill="#2C1055" transform="translate(758,312)"/>
<path d="M0 0 C0.66 0 1.32 0 2 0 C4.09230769 4.43076923 4.09230769 4.43076923 3.625 7.3125 C3.41875 7.869375 3.2125 8.42625 3 9 C0.90250005 6.64031256 0.03094296 5.45383006 -0.1875 2.25 C-0.125625 1.5075 -0.06375 0.765 0 0 Z " fill="#331A5C" transform="translate(847,286)"/>
<path d="M0 0 C3 1 3 1 5 2 C4.67 3.65 4.34 5.3 4 7 C1.49962266 4.82575883 0.56371414 3.26954202 0 0 Z " fill="#240954" transform="translate(763,321)"/>
<path d="M0 0 C0 0.99 0 1.98 0 3 C-2.64 3 -5.28 3 -8 3 C-8 2.34 -8 1.68 -8 1 C-2.25 0 -2.25 0 0 0 Z " fill="#250458" transform="translate(809,237)"/>
</svg>
